<?xml version="1.0" standalone="no"?>
<!DOCTYPE svg PUBLIC "-//W3C//DTD SVG 20010904//EN"
 "http://www.w3.org/TR/2001/REC-SVG-20010904/DTD/svg10.dtd">
<svg version="1.0" xmlns="http://www.w3.org/2000/svg"
 width="1024.000000pt" height="1024.000000pt" viewBox="0 0 1024.000000 1024.000000"
 preserveAspectRatio="xMidYMid meet">
<metadata>
Created by potrace 1.14, written by Peter Selinger 2001-2017
</metadata>
<g transform="translate(0.000000,1024.000000) scale(0.100000,-0.100000)"
fill="#000000" stroke="none">
<path d="M3598 8423 c12 -2 30 -2 40 0 9 3 -1 5 -23 4 -22 0 -30 -2 -17 -4z"/>
<path d="M5143 8423 c37 -2 96 -2 130 0 34 2 4 3 -68 3 -71 0 -99 -1 -62 -3z"/>
<path d="M5527 8423 c18 -2 50 -2 70 0 21 2 7 4 -32 4 -38 0 -55 -2 -38 -4z"/>
<path d="M6333 8423 c37 -2 97 -2 135 0 37 2 6 3 -68 3 -74 0 -105 -1 -67 -3z"/>
<path d="M3408 8413 c6 -2 18 -2 25 0 6 3 1 5 -13 5 -14 0 -19 -2 -12 -5z"/>
<path d="M6833 8413 c9 -2 23 -2 30 0 6 3 -1 5 -18 5 -16 0 -22 -2 -12 -5z"/>
<path d="M3690 8373 c-150 -5 -404 -24 -449 -34 -62 -13 -179 -48 -216 -64
-16 -7 -48 -18 -70 -25 -22 -7 -63 -23 -91 -35 -45 -21 -75 -39 -184 -112 -34
-23 -252 -245 -246 -251 3 -2 12 3 21 12 20 20 29 21 21 1 -3 -8 2 -18 11 -23
11 -6 12 -11 4 -16 -6 -4 -11 -19 -11 -33 0 -18 4 -24 15 -19 8 3 15 1 15 -4
0 -6 -7 -10 -15 -10 -8 0 -15 -7 -15 -15 0 -9 -7 -27 -16 -40 -16 -25 -16 -25
20 -25 26 0 36 -4 36 -16 0 -9 -9 -18 -20 -21 -11 -3 -20 -14 -20 -24 0 -12
-7 -19 -20 -19 -12 0 -20 -7 -20 -16 0 -9 -9 -18 -20 -21 -11 -3 -20 -14 -20
-24 0 -16 -8 -19 -44 -19 -39 0 -45 -3 -53 -27 l-9 -27 -17 33 c-10 19 -14 44
-11 57 5 19 3 23 -9 18 -18 -6 -30 -32 -21 -45 3 -5 -2 -9 -10 -9 -10 0 -16
-9 -16 -25 0 -14 -4 -25 -10 -25 -11 0 -44 -105 -92 -290 l-33 -125 0 -1780
c0 -1668 1 -1786 18 -1872 17 -89 87 -304 106 -327 6 -6 19 -33 30 -58 15 -36
17 -46 5 -41 -7 3 -12 8 -9 12 2 4 -4 15 -15 23 -11 11 -17 25 -14 40 2 13 2
17 -2 11 -9 -19 -22 -16 -29 8 -4 11 -9 18 -11 16 -10 -9 46 -117 115 -225 40
-62 75 -112 78 -112 2 0 1 5 -3 12 -4 7 -3 8 4 4 6 -4 9 -13 6 -20 -3 -8 6
-23 20 -34 14 -11 26 -24 26 -30 0 -15 126 -122 134 -114 4 4 6 1 4 -6 -2 -7
26 -34 62 -60 36 -26 59 -39 51 -29 -15 19 -2 24 17 5 8 -8 12 -8 12 -1 0 16
-48 45 -55 33 -7 -11 -35 -2 -35 12 0 5 5 6 12 2 7 -4 8 -3 4 5 -4 6 -12 9
-17 5 -5 -3 -8 -1 -7 4 4 12 -49 62 -56 54 -3 -3 -6 -1 -6 4 0 15 -53 69 -83
84 -16 8 -24 16 -18 18 7 2 6 8 -2 17 -7 8 -16 10 -23 4 -7 -5 -11 -4 -11 4
-1 21 -8 41 -18 53 -5 7 -18 23 -29 38 -10 14 -22 24 -26 21 -11 -7 -35 24
-26 32 4 4 11 1 16 -7 6 -8 10 -10 10 -4 0 6 -9 23 -20 37 -11 14 -20 30 -20
35 0 6 -6 12 -12 15 -7 2 -10 8 -6 12 4 4 30 -28 58 -71 28 -44 56 -87 63 -97
6 -10 13 -22 13 -27 1 -6 2 -15 3 -22 0 -6 4 -8 7 -5 4 4 50 -35 103 -85 53
-50 123 -109 156 -131 33 -22 62 -43 65 -46 3 -3 10 -7 15 -8 25 -4 96 -51 86
-57 -6 -4 -11 -2 -11 5 0 7 -3 9 -7 6 -3 -4 -12 -2 -20 4 -9 8 -13 8 -13 1 0
-11 38 -28 54 -23 5 1 13 -4 17 -11 7 -11 9 -10 9 1 0 9 6 11 18 6 9 -4 67
-24 127 -45 214 -75 140 -73 2095 -73 1321 0 1761 3 1845 12 114 13 223 37
335 73 95 30 295 131 370 185 120 87 253 233 324 356 16 26 33 44 38 40 6 -3
8 -1 5 5 -10 15 3 43 16 35 6 -4 8 0 4 10 -3 8 6 39 20 69 14 29 29 63 34 76
5 13 12 21 16 19 5 -3 9 9 9 26 1 17 6 33 13 35 6 2 11 13 11 25 1 41 47 192
53 177 4 -8 6 -1 4 17 -2 18 0 30 5 27 5 -3 8 14 8 38 6 1684 6 3279 0 3428
-8 176 -12 208 -44 333 -49 187 -113 341 -189 454 -95 141 -210 265 -348 378
-26 20 -177 107 -239 137 -74 35 -311 104 -402 117 -41 6 -127 13 -193 17
-167 8 -1871 11 -1838 2 14 -4 225 -8 467 -9 243 0 456 -4 475 -7 34 -5 34 -5
10 -15 -28 -12 -40 -10 135 -28 86 -8 120 -9 125 -1 5 8 43 10 125 5 l118 -6
-4 -91 c-2 -50 -2 -83 0 -73 3 13 13 17 43 17 32 0 39 3 39 20 0 17 7 20 40
20 33 0 40 -3 40 -20 0 -17 7 -20 40 -20 33 0 40 -3 40 -20 0 -16 8 -19 57
-22 46 -2 59 -7 61 -20 2 -13 -3 -18 -17 -18 -28 0 -28 -36 -1 -43 11 -3 20
-12 20 -21 0 -9 8 -16 20 -16 17 0 20 7 20 40 0 43 23 57 35 21 3 -11 15 -23
26 -26 28 -9 24 -35 -6 -35 -14 0 -25 -4 -25 -9 0 -12 29 -41 40 -41 13 0 10
-94 -4 -102 -6 -4 4 -8 22 -8 25 0 32 -4 32 -20 0 -16 7 -20 36 -20 27 0 37
-5 41 -20 3 -11 14 -20 24 -20 12 0 19 -7 19 -20 0 -17 7 -20 40 -20 33 0 40
3 40 20 0 17 -7 20 -40 20 l-40 0 0 41 0 41 -42 -3 -43 -4 3 83 3 82 40 0 c39
0 39 0 39 -40 l0 -40 40 0 40 0 0 -40 c0 -28 4 -40 14 -40 8 0 17 -9 21 -19 3
-11 15 -23 26 -26 16 -5 19 -16 19 -61 l0 -54 59 0 c54 0 59 -2 54 -20 -4 -16
0 -20 18 -21 62 -3 64 -4 65 -29 2 -45 4 -49 24 -55 17 -5 20 -15 20 -61 l0
-54 40 0 40 0 0 -40 c0 -33 3 -40 20 -40 19 0 20 -7 20 -120 0 -113 1 -120 20
-120 17 0 20 7 20 40 0 43 23 57 35 20 3 -11 12 -21 18 -21 7 -1 19 -3 27 -4
8 -1 20 -3 27 -4 17 -2 4 -31 -13 -31 -10 0 -14 -12 -14 -40 0 -28 4 -40 14
-40 10 0 16 -22 21 -80 6 -69 10 -80 26 -80 15 0 19 7 19 40 l0 40 40 0 40 0
0 -64 c0 -55 3 -64 18 -62 13 1 16 -5 14 -27 -3 -33 15 -60 35 -53 9 4 13 -5
13 -30 0 -24 4 -34 13 -31 22 8 48 -13 42 -34 -5 -13 -2 -19 9 -19 14 0 14 -3
4 -20 -11 -17 -10 -22 1 -29 8 -5 11 -16 8 -24 -4 -10 0 -13 11 -10 14 3 17
-5 19 -48 2 -36 8 -59 23 -74 11 -12 17 -25 13 -28 -3 -4 -2 -7 3 -7 5 0 10
-9 11 -20 2 -18 0 -19 -13 -5 -9 8 -19 15 -23 15 -4 0 -36 28 -72 63 -35 35
-76 72 -91 84 -15 11 -55 45 -90 76 -93 82 -120 101 -144 104 -17 3 -133 -108
-531 -504 -589 -588 -1105 -1087 -1183 -1145 -19 -14 -217 -207 -440 -428
-456 -452 -587 -576 -607 -573 -8 0 -12 -2 -9 -5 11 -10 -15 -31 -32 -25 -12
3 -13 2 -4 -4 10 -7 6 -16 -15 -39 -15 -16 -31 -28 -35 -27 -4 2 -7 0 -5 -5 1
-4 -1 -7 -4 -7 -3 0 -25 -19 -48 -42 -30 -29 -59 -47 -95 -56 -57 -16 -95 -17
-93 -4 1 5 -4 12 -10 14 -7 3 -13 -3 -13 -12 0 -9 9 -19 20 -22 11 -3 20 -12
20 -19 0 -8 42 -59 93 -112 50 -54 108 -120 127 -146 19 -26 54 -69 77 -94 24
-26 43 -55 43 -65 0 -10 10 -22 23 -27 20 -8 19 -9 -10 -9 -24 -1 -33 -6 -33
-17 0 -12 -6 -15 -22 -10 -13 3 -31 6 -40 6 -11 0 -18 8 -18 20 0 16 -7 20
-36 20 -28 0 -44 7 -66 30 -19 21 -38 30 -59 30 -22 0 -30 4 -26 14 7 17 -11
36 -35 36 -10 0 -18 7 -18 15 0 11 -11 15 -40 15 -33 0 -40 3 -40 20 0 17 -7
20 -40 20 -33 0 -40 3 -40 20 0 17 -7 20 -40 20 -29 0 -40 -4 -40 -15 0 -11
-11 -15 -40 -15 -29 0 -40 4 -40 15 0 11 -13 15 -53 15 -45 0 -54 3 -62 22 -8
18 -18 23 -45 23 -27 0 -35 4 -34 18 1 12 -5 17 -22 17 -17 0 -24 6 -24 19 0
11 -9 21 -21 24 -15 4 -20 11 -16 21 5 13 -2 16 -38 16 -38 0 -45 3 -45 20 0
13 -7 20 -20 20 -13 0 -20 7 -20 20 0 13 -7 20 -20 20 -13 0 -20 7 -20 19 0
16 -8 20 -37 23 -29 2 -38 7 -37 21 3 28 -44 23 -48 -5 -2 -13 -10 -23 -18
-23 -8 0 -16 10 -18 23 -4 24 -27 30 -35 10 -3 -7 -6 11 -6 40 l-1 52 -60 0
-60 0 0 40 c0 33 -3 40 -20 40 -14 0 -20 7 -20 24 0 17 -5 23 -17 22 -11 0
-17 6 -17 17 1 12 -5 17 -22 17 -19 0 -24 5 -24 24 0 17 -5 23 -17 22 -11 0
-17 6 -17 17 1 12 -5 17 -22 17 -23 0 -24 3 -24 59 0 49 -3 59 -18 63 -13 4
-19 15 -20 38 -1 39 -1 39 -43 43 -36 3 -36 3 -38 75 -1 35 -4 42 -21 42 -13
0 -20 7 -20 19 0 10 -9 21 -21 24 -11 3 -19 11 -18 19 1 7 1 32 0 56 -1 35 -4
42 -21 42 -17 0 -20 7 -20 40 0 33 -3 40 -20 40 -17 0 -20 7 -20 40 0 36 -3
40 -24 40 -22 0 -24 3 -19 40 5 37 4 40 -18 40 -16 0 -28 8 -34 23 -6 12 -17
22 -25 22 -10 0 -15 10 -15 31 0 17 -6 39 -14 47 -7 9 -10 21 -6 27 3 5 1 10
-4 10 -6 0 -19 18 -28 40 -10 22 -21 40 -24 40 -8 0 -24 78 -21 96 1 6 -5 17
-13 24 -8 7 -15 19 -15 26 0 8 -9 14 -20 14 -12 0 -17 5 -14 14 3 8 -4 20 -15
28 -12 8 -24 30 -27 49 -4 19 -10 39 -15 44 -4 6 -13 32 -19 58 -7 26 -16 47
-21 47 -13 0 -11 27 3 50 18 28 -1 75 -29 74 -19 0 -20 2 -11 20 6 12 7 18 3
14 -5 -5 -15 1 -22 12 -12 18 -12 22 2 37 13 13 14 18 3 25 -10 8 -9 9 4 4 12
-3 18 2 20 17 2 12 9 21 16 19 8 -1 10 2 7 8 -4 6 -14 9 -22 6 -8 -3 -11 -1
-8 4 3 6 0 10 -7 10 -8 0 -9 3 -3 8 6 4 11 14 11 22 1 8 5 27 9 43 5 21 4 27
-8 27 -8 0 -17 -3 -20 -7 -2 -5 -2 -2 0 5 1 8 3 29 3 48 0 24 5 34 15 34 11 0
15 11 15 40 0 29 -4 40 -15 40 -11 0 -15 11 -15 40 0 33 3 40 20 40 18 0 20 7
20 80 0 73 2 80 20 80 19 0 20 7 20 240 0 233 1 240 20 240 19 0 20 7 20 160
l0 160 -60 0 -60 0 0 80 0 80 65 0 65 0 0 49 c0 52 -21 87 -46 77 -32 -12 -41
4 -41 74 0 59 3 71 19 76 10 3 18 14 18 25 0 17 8 19 80 19 l80 0 0 40 0 40
55 0 c48 0 55 2 55 20 0 13 9 22 25 26 19 5 25 13 25 35 0 27 -3 29 -40 29
l-40 0 0 64 c0 44 -5 67 -15 76 -10 9 -15 9 -15 1 0 -6 -7 -11 -16 -11 -14 0
-14 -3 -4 -15 10 -13 9 -15 -9 -15 -24 0 -25 7 -11 44 7 19 17 26 35 26 21 0
25 4 21 18 -5 13 1 22 19 30 14 7 28 19 31 27 4 8 13 15 20 15 8 0 17 7 20 15
5 12 29 15 125 15 93 0 119 3 119 13 0 8 18 22 40 32 22 10 40 22 40 27 0 4
18 8 40 8 33 0 40 4 40 19 0 12 9 21 26 25 17 5 24 12 20 21 -4 10 1 15 14 15
11 0 20 4 20 9 0 6 16 7 35 4 19 -3 40 -1 47 4 22 17 70 25 78 13 5 -8 15 -8
34 0 36 13 207 14 186 0 -13 -8 -13 -10 2 -10 9 0 18 4 20 9 2 5 129 12 283
15 153 4 281 8 283 10 3 4 -592 3 -718 -1z m2463 -40 c-7 -2 -21 -2 -30 0 -10
3 -4 5 12 5 17 0 24 -2 18 -5z m-90 -10 c-13 -2 -33 -2 -45 0 -13 2 -3 4 22 4
25 0 35 -2 23 -4z m487 -33 c11 -7 4 -10 -27 -10 -24 0 -43 5 -43 10 0 13 50
13 70 0z m-43 -36 c-3 -3 -12 -4 -19 -1 -8 3 -5 6 6 6 11 1 17 -2 13 -5z m243
-3 c0 -5 -7 -11 -14 -14 -10 -4 -13 -1 -9 9 6 15 23 19 23 5z m-4080 -211 c0
-5 -5 -10 -11 -10 -5 0 -7 5 -4 10 3 6 8 10 11 10 2 0 4 -4 4 -10z m-32 -41
c-7 -5 -20 -9 -28 -9 -12 1 -11 3 3 11 10 6 14 15 10 22 -4 7 1 6 11 -2 13
-11 14 -16 4 -22z m5097 -19 c10 -11 16 -20 13 -20 -3 0 -13 9 -23 20 -10 11
-16 20 -13 20 3 0 13 -9 23 -20z m-5095 -20 c0 -5 -2 -10 -4 -10 -3 0 -8 5
-11 10 -3 6 -1 10 4 10 6 0 11 -4 11 -10z m-53 -6 c-3 -3 -12 -4 -19 -1 -8 3
-5 6 6 6 11 1 17 -2 13 -5z m206 -1 c-7 -2 -19 -2 -25 0 -7 3 -2 5 12 5 14 0
19 -2 13 -5z m-36 -58 c-4 -8 -13 -15 -22 -15 -13 0 -12 3 3 18 19 21 27 20
19 -3z m-197 -45 c0 -5 -9 -10 -21 -10 -11 0 -17 5 -14 10 3 6 13 10 21 10 8
0 14 -4 14 -10z m240 -35 c0 -8 -7 -15 -15 -15 -16 0 -20 12 -8 23 11 12 23 8
23 -8z m-160 -75 c0 -22 -1 -23 -24 -14 -18 7 -10 34 10 34 8 0 14 -9 14 -20z
m5158 -683 c2 -12 -3 -17 -17 -17 -15 0 -21 6 -21 21 0 25 33 22 38 -4z m-118
-1307 c0 -63 -2 -70 -20 -70 -17 0 -20 -7 -20 -40 0 -22 -4 -40 -10 -40 -5 0
-10 -18 -10 -40 0 -22 -4 -40 -10 -40 -5 0 -10 -18 -10 -40 0 -33 -3 -40 -20
-40 -18 0 -20 -7 -20 -80 0 -73 -2 -80 -20 -80 -17 0 -20 -7 -20 -40 0 -33 -3
-40 -20 -40 -17 0 -20 -7 -20 -40 0 -33 -3 -40 -20 -40 -18 0 -20 -7 -20 -80
0 -72 -2 -80 -19 -80 -10 0 -21 -9 -24 -20 -3 -11 -13 -20 -22 -20 -14 0 -16
-9 -13 -60 3 -54 1 -60 -17 -60 -19 -1 -19 -1 -2 -14 16 -13 16 -14 -5 -29
l-23 -15 25 -10 25 -11 -27 0 c-26 -1 -28 -4 -28 -41 l0 -40 -40 0 -40 0 0
-40 c0 -29 -4 -40 -15 -40 -11 0 -15 -11 -15 -40 0 -36 -3 -40 -24 -40 -17 0
-23 -5 -22 -17 0 -11 -6 -17 -16 -17 -15 2 -18 -7 -18 -62 0 -62 -1 -64 -26
-64 -19 0 -25 -4 -21 -14 4 -9 -2 -17 -14 -21 -10 -4 -19 -15 -19 -26 0 -16
-7 -19 -40 -19 l-40 0 0 -40 c0 -35 -3 -40 -22 -40 -33 -1 -58 -23 -58 -54 0
-24 -3 -26 -40 -26 l-40 0 0 -40 c0 -36 -3 -40 -24 -40 -17 0 -23 -5 -22 -17
0 -11 -6 -17 -16 -17 -13 1 -18 -5 -18 -22 0 -19 -5 -24 -24 -24 -17 0 -23 -5
-22 -17 1 -14 -7 -18 -34 -18 -27 0 -37 -5 -45 -22 -5 -13 -15 -23 -22 -23 -7
0 -13 -7 -13 -15 0 -11 -11 -15 -40 -15 -36 0 -40 -2 -40 -25 0 -22 -4 -25
-40 -25 -33 0 -40 -4 -40 -19 0 -12 -7 -18 -17 -17 -10 0 -22 -9 -28 -21 -5
-13 -15 -23 -22 -23 -7 0 -13 -6 -14 -12 0 -10 -2 -10 -6 0 -8 20 -31 14 -35
-10 -3 -20 -8 -23 -40 -20 -32 3 -37 0 -40 -20 -2 -19 -10 -23 -45 -26 -29 -2
-43 -8 -43 -18 0 -8 -7 -14 -15 -14 -8 0 -15 -4 -15 -9 0 -5 -18 -7 -40 -4
-33 5 -40 3 -40 -11 0 -12 -10 -16 -40 -16 -29 0 -40 -4 -40 -15 0 -12 -16
-15 -80 -15 -79 0 -80 0 -80 -25 0 -25 -1 -25 -80 -25 -64 0 -80 -3 -80 -15 0
-12 -16 -15 -80 -15 -64 0 -80 3 -80 15 0 9 -9 15 -25 15 -22 0 -25 4 -25 40
0 29 4 40 15 40 18 0 19 12 3 28 -10 10 -10 15 2 22 8 6 21 8 28 5 10 -3 10 0
2 16 -16 29 -3 61 21 54 13 -4 19 -2 19 9 0 8 11 25 24 38 13 13 29 40 35 60
7 20 28 51 47 67 19 17 34 33 34 36 0 3 8 13 18 24 24 26 85 105 147 190 17
23 66 79 110 124 44 46 100 107 125 137 38 46 91 104 136 150 7 7 37 36 68 66
31 30 56 56 56 58 0 3 18 24 41 47 22 23 48 53 56 66 8 13 21 23 27 23 6 0 30
20 53 45 23 24 55 52 70 62 15 10 62 52 104 95 42 42 88 80 102 83 15 4 27 11
27 16 0 5 24 31 53 60 28 28 52 54 52 59 0 4 26 33 58 64 31 31 55 56 51 56
-4 0 -1 7 6 15 7 8 21 15 31 15 11 0 19 7 19 16 0 8 4 13 8 10 5 -3 24 15 42
39 21 28 44 46 63 51 22 4 26 8 16 15 -12 7 -12 9 1 9 15 0 60 46 60 62 0 5 9
7 20 3 15 -5 19 -3 14 10 -5 11 0 18 15 22 11 3 21 11 21 17 0 15 40 50 65 56
11 3 25 16 31 28 15 31 61 71 89 78 14 3 25 11 25 18 1 19 43 43 88 51 23 4
44 11 48 16 3 5 14 9 25 9 17 0 19 -7 19 -70z m-5074 -69 c-9 -14 -26 -14 -26
0 0 5 5 7 10 4 6 -3 10 -1 10 4 0 6 -4 11 -10 11 -5 0 -10 5 -10 12 0 8 6 7
16 -4 9 -9 13 -21 10 -27z m984 -1776 c0 -8 -4 -15 -10 -15 -5 0 -10 7 -10 15
0 8 5 15 10 15 6 0 10 -7 10 -15z m400 -240 c0 -8 -4 -15 -10 -15 -5 0 -10 7
-10 15 0 8 5 15 10 15 6 0 10 -7 10 -15z m-1716 -781 c3 -8 2 -12 -4 -9 -6 3
-10 10 -10 16 0 14 7 11 14 -7z m66 -98 c0 -6 -7 -1 -15 10 -8 10 -15 23 -15
28 0 6 7 1 15 -10 8 -10 15 -23 15 -28z m300 -286 c0 -5 -5 -10 -11 -10 -5 0
-7 5 -4 10 3 6 8 10 11 10 2 0 4 -4 4 -10z"/>
<path d="M6032 3578 c7 -20 48 -23 48 -4 0 11 -9 16 -26 16 -16 0 -24 -5 -22
-12z"/>
<path d="M4578 8363 c56 -2 148 -2 205 0 56 1 10 3 -103 3 -113 0 -159 -2
-102 -3z"/>
<path d="M3778 8343 c7 -3 16 -2 19 1 4 3 -2 6 -13 5 -11 0 -14 -3 -6 -6z"/>
<path d="M3608 8323 c7 -3 16 -2 19 1 4 3 -2 6 -13 5 -11 0 -14 -3 -6 -6z"/>
<path d="M6280 8221 c0 -15 6 -21 21 -21 14 0 19 5 17 17 -5 26 -38 29 -38 4z"/>
<path d="M2549 8083 c-13 -16 -12 -17 4 -4 16 13 21 21 13 21 -2 0 -10 -8 -17
-17z"/>
<path d="M2960 7935 c0 -11 11 -15 40 -15 29 0 40 4 40 15 0 11 -11 15 -40 15
-29 0 -40 -4 -40 -15z"/>
<path d="M6791 7904 c0 -11 3 -14 6 -6 3 7 2 16 -1 19 -3 4 -6 -2 -5 -13z"/>
<path d="M2271 7617 c-13 -21 -12 -21 5 -5 10 10 16 20 13 22 -3 3 -11 -5 -18
-17z"/>
<path d="M7090 7585 c0 -8 4 -15 10 -15 5 0 7 7 4 15 -4 8 -8 15 -10 15 -2 0
-4 -7 -4 -15z"/>
<path d="M2275 7539 c-4 -6 -4 -13 -1 -16 8 -8 36 5 36 17 0 13 -27 13 -35 -1z"/>
<path d="M6840 7450 c0 -6 -4 -9 -10 -5 -5 3 -18 -3 -30 -15 -11 -11 -20 -17
-20 -12 0 4 -26 -20 -58 -53 -32 -33 -68 -66 -80 -74 -11 -8 -19 -18 -16 -22
2 -5 -8 -16 -23 -26 -29 -18 -203 -191 -203 -202 0 -3 -33 -37 -72 -76 -40
-38 -247 -245 -459 -460 -212 -214 -541 -541 -730 -725 -393 -384 -473 -464
-501 -502 -11 -16 -23 -28 -29 -28 -10 0 -122 106 -348 330 -92 91 -250 246
-352 345 -102 99 -266 258 -365 354 -98 95 -188 178 -200 183 -48 22 -92 1
-178 -83 -44 -44 -106 -101 -136 -127 -30 -26 -144 -135 -253 -243 l-199 -196
149 -149 c82 -82 200 -196 263 -254 116 -108 448 -433 873 -855 133 -132 303
-296 377 -365 74 -69 176 -164 225 -212 50 -48 102 -91 116 -97 29 -11 69 -4
69 11 0 5 5 6 10 3 6 -3 10 -1 10 6 0 11 276 289 287 289 2 0 95 89 206 198
110 108 239 235 286 281 131 127 349 333 384 361 78 63 278 254 619 590 910
899 1158 1149 1158 1166 0 18 -199 219 -429 434 -63 58 -137 128 -165 155 -28
28 -60 57 -71 65 -24 19 -105 27 -105 10z"/>
<path d="M8181 7304 c0 -11 3 -14 6 -6 3 7 2 16 -1 19 -3 4 -6 -2 -5 -13z"/>
<path d="M8191 7254 c0 -11 3 -14 6 -6 3 7 2 16 -1 19 -3 4 -6 -2 -5 -13z"/>
<path d="M8202 7200 c0 -14 2 -19 5 -12 2 6 2 18 0 25 -3 6 -5 1 -5 -13z"/>
<path d="M8212 7135 c0 -16 2 -22 5 -12 2 9 2 23 0 30 -3 6 -5 -1 -5 -18z"/>
<path d="M2023 6890 c0 -25 2 -35 4 -22 2 12 2 32 0 45 -2 12 -4 2 -4 -23z"/>
<path d="M2721 6864 c0 -11 3 -14 6 -6 3 7 2 16 -1 19 -3 4 -6 -2 -5 -13z"/>
<path d="M8233 6350 c0 -47 2 -66 4 -42 2 23 2 61 0 85 -2 23 -4 4 -4 -43z"/>
<path d="M2021 6384 c0 -11 3 -14 6 -6 3 7 2 16 -1 19 -3 4 -6 -2 -5 -13z"/>
<path d="M2656 5987 c3 -10 9 -15 12 -12 3 3 0 11 -7 18 -10 9 -11 8 -5 -6z"/>
<path d="M2595 5921 c-3 -5 -2 -12 3 -15 5 -3 9 1 9 9 0 17 -3 19 -12 6z"/>
<path d="M2647 5616 c-4 -10 -1 -13 9 -9 7 3 14 9 14 14 0 14 -17 10 -23 -5z"/>
<path d="M2014 4935 c0 -99 2 -138 3 -87 2 51 2 132 0 180 -1 48 -3 6 -3 -93z"/>
<path d="M4954 4157 c-28 -29 -55 -59 -59 -67 -7 -13 21 11 112 98 13 12 18
22 11 21 -7 0 -36 -24 -64 -52z"/>
<path d="M3521 4094 c0 -11 3 -14 6 -6 3 7 2 16 -1 19 -3 4 -6 -2 -5 -13z"/>
<path d="M8232 4020 c0 -14 2 -19 5 -12 2 6 2 18 0 25 -3 6 -5 1 -5 -13z"/>
<path d="M8233 3920 c0 -36 2 -50 4 -32 2 17 2 47 0 65 -2 17 -4 3 -4 -33z"/>
<path d="M2013 3830 c0 -41 2 -58 4 -37 2 20 2 54 0 75 -2 20 -4 3 -4 -38z"/>
<path d="M4240 3620 c0 -17 7 -20 40 -20 33 0 40 3 40 20 0 17 -7 20 -40 20
-33 0 -40 -3 -40 -20z"/>
<path d="M2022 3605 c0 -16 2 -22 5 -12 2 9 2 23 0 30 -3 6 -5 -1 -5 -18z"/>
<path d="M8222 3540 c0 -14 2 -19 5 -12 2 6 2 18 0 25 -3 6 -5 1 -5 -13z"/>
<path d="M2031 3494 c0 -11 3 -14 6 -6 3 7 2 16 -1 19 -3 4 -6 -2 -5 -13z"/>
<path d="M8211 3464 c0 -11 3 -14 6 -6 3 7 2 16 -1 19 -3 4 -6 -2 -5 -13z"/>
<path d="M2051 3374 c0 -11 3 -14 6 -6 3 7 2 16 -1 19 -3 4 -6 -2 -5 -13z"/>
<path d="M8191 3364 c0 -11 3 -14 6 -6 3 7 2 16 -1 19 -3 4 -6 -2 -5 -13z"/>
<path d="M8147 3229 c4 -13 8 -18 11 -10 2 7 -1 18 -6 23 -8 8 -9 4 -5 -13z"/>
<path d="M8124 3173 c1 -42 7 -40 21 6 5 15 3 21 -3 17 -6 -3 -12 0 -15 6 -2
7 -4 -6 -3 -29z"/>
<path d="M2137 3137 c-3 -8 -2 -20 3 -26 5 -9 8 -4 8 13 0 29 -3 32 -11 13z"/>
<path d="M7997 2903 c-4 -3 -7 -11 -7 -17 0 -6 5 -5 12 2 6 6 9 14 7 17 -3 3
-9 2 -12 -2z"/>
<path d="M7970 2861 c0 -4 -23 -39 -51 -77 -29 -38 -43 -61 -33 -52 30 26 106
138 94 138 -5 0 -10 -4 -10 -9z"/>
<path d="M7814 2658 l-19 -23 23 19 c12 11 22 21 22 23 0 8 -8 2 -26 -19z"/>
<path d="M7679 2533 c-13 -16 -12 -17 4 -4 9 7 17 15 17 17 0 8 -8 3 -21 -13z"/>
<path d="M2700 2436 c0 -3 9 -10 20 -16 11 -6 20 -8 20 -6 0 3 -9 10 -20 16
-11 6 -20 8 -20 6z"/>
<path d="M7405 2375 c-49 -24 -86 -44 -81 -44 12 -1 176 76 176 83 0 8 9 11
-95 -39z"/>
<path d="M2777 2389 c7 -7 15 -10 18 -7 3 3 -2 9 -12 12 -14 6 -15 5 -6 -5z"/>
<path d="M2865 2350 c62 -29 91 -38 65 -19 -12 9 -12 10 3 5 10 -3 24 -6 30
-6 7 0 6 -5 -3 -11 -12 -8 -11 -9 5 -5 11 3 34 2 50 -3 22 -7 25 -10 10 -11
-16 -1 -14 -4 8 -12 34 -12 64 6 37 22 -8 5 -17 7 -21 4 -4 -2 -10 0 -14 6 -3
5 -16 10 -29 10 -12 0 -26 4 -32 10 -5 5 -30 11 -54 14 -25 2 -58 9 -73 15
-52 20 -42 10 18 -19z m195 -50 c0 -5 -5 -10 -11 -10 -5 0 -7 5 -4 10 3 6 8
10 11 10 2 0 4 -4 4 -10z"/>
<path d="M7288 2323 c7 -3 16 -2 19 1 4 3 -2 6 -13 5 -11 0 -14 -3 -6 -6z"/>
<path d="M7205 2305 c-39 -18 -11 -18 35 0 22 8 28 13 15 13 -11 0 -33 -6 -50
-13z"/>
<path d="M3094 2292 c4 -7 1 -12 -6 -13 -7 0 1 -5 17 -10 17 -5 38 -6 49 -3
11 4 16 2 12 -4 -7 -12 43 -23 73 -15 11 3 27 0 35 -6 9 -8 466 -13 1647 -17
1611 -6 2005 -2 1992 18 -4 7 11 9 43 5 36 -4 43 -4 24 3 -20 8 -16 9 20 6 51
-5 102 3 95 14 -3 5 3 6 13 4 9 -3 28 -1 42 5 34 13 -70 8 -205 -9 -74 -10
-228 -12 -590 -9 -269 2 -553 3 -630 3 -466 -5 -2428 -3 -2465 2 -25 4 -49 10
-55 14 -5 4 -30 8 -53 9 -24 0 -49 4 -54 8 -7 3 -8 1 -4 -5z m1924 -59 c-27
-2 -69 -2 -95 0 -27 2 -5 3 47 3 52 0 74 -1 48 -3z m875 0 c-7 -2 -19 -2 -25
0 -7 3 -2 5 12 5 14 0 19 -2 13 -5z m184 1 c-3 -3 -12 -4 -19 -1 -8 3 -5 6 6
6 11 1 17 -2 13 -5z"/>
</g>
</svg>
